#!OML:ASF F:\VICON\USERDATA\INSTALL\rory3\rory3.ASF
:FULLY-SPECIFIED
:DEGREES
9
root 0.28110373921391046 17.52700100184805 -14.29009025911979 6.607385374605032 0.10722570419327326 -1.4246658807664956
lfemur -13.395005366431347 7.798535611194502 -17.141006540687354
ltibia 18.584405852372704
lfoot -10.328799428255937 3.6274846098442532
ltoes -10.934099073137101
rfemur -13.986904846985723 -2.4836447393830086 19.25370955897239
rtibia 21.58810526339778
rfoot -13.54409991220639 -2.273901555578506
rtoes 5.962662224425004
lowerback -1.9053059242032933 -0.7623407973064787 0.5148624554468122
upperback 5.00563005254555 -1.1355001648572445 1.6102999081043952
thorax 6.286650897168091 -0.5818865118168935 1.3034075738607704
lowerneck -10.88240535989476 0.3106085702585436 -2.5505702867982114
upperneck 36.48018584356668 0.6980959475225559 1.1352741894316036
head 14.301084688933727 0.09478728892166481 1.021146444302532
lclavicle 1.093863004181072e-15 -2.2156995616145326e-15
lhumerus -16.338408659592474 -3.123229536846602 89.48639328359539
lradius 20.999801679748963
lwrist 2.4338337514168575
lhand -23.284602862003148 -3.394706885766721
lfingers 7.12502
lthumb 3.168217109343964 26.561493081258387
rclavicle 1.093863004181072e-15 -2.2156995616145326e-15
rhumerus -18.995809335268802 -17.503294138692645 -82.60369145005785
rradius 26.17670243282163
rwrist 31.346308941868156
rhand -18.43859264751794 -26.986096459062836
rfingers 7.12502
rthumb 7.846997397773393 -56.820496152551286
10
root 0.3104688647382289 17.527600995210218 -14.299389332812138 6.64655543603984 -0.005882497886002591 -1.4185059855903652
lfemur -13.46650595843218 7.998994554082557 -17.265505812681997
ltibia 18.595605789437506
lfoot -10.416799349924526 3.595234655635147
ltoes -11.19369874369007
rfemur -14.087205474088362 -2.3564252650677293 19.14151024481823
rtibia 21.59960567109144
rfoot -13.484499971203089 -2.3836312934337807
rtoes 5.681532516286593
lowerback -1.929775962618241 -0.7651027490366635 0.4831307710179292
upperback 5.003780139309318 -1.1376301165503058 1.6031000464017429
thorax 6.29929093898239 -0.5843394806803742 1.313237434553427
lowerneck -10.986504949193034 0.39532607580355406 -2.478652061407166
upperneck 36.46198573397164 0.8160447796616024 1.1100944249348719
head 14.313584561033867 0.15154000809342938 1.015986643569025
lclavicle 1.0938630030847678e-15 -2.2156995662169775e-15
lhumerus -16.185408792028646 -2.5397900962713473 89.2350940670711
lradius 20.521802385051913
lwrist 1.8046741221260882
lhand -23.334002629835208 -3.316487205138517
lfingers 7.12502
lthumb 3.120587406169521 26.640392838270056
rclavicle 1.0938630030847678e-15 -2.2156995662169775e-15
rhumerus -19.060009141075533 -17.22799460036039 -83.0462901824223
rradius 26.21280239340989
rwrist 31.213209262990834
rhand -18.242793852476147 -26.748198544605376
rfingers 7.12502
rthumb 8.036026179541935 -56.57539822639294
11
root 0.3386830506765599 17.527400993884235 -14.310089636786898 6.658255209182514 -0.07079649681952993 -1.4413756253477052
lfemur -13.56490580496168 8.032964351544623 -17.355405257581964
ltibia 18.698805355625836
lfoot -10.447599303978409 3.8029442922254413
ltoes -11.724298016057768
rfemur -14.140604736819267 -2.317055462266599 19.06431078817786
rtibia 21.575504816707337
rfoot -13.407100047868335 -2.4090613179091394
rtoes 5.524192700508058
lowerback -1.8225460342517126 -0.7551658875057994 0.4961326635759919
upperback 4.998370096580663 -1.1245602527901493 1.6273795796784754
thorax 6.231771106404956 -0.5779435876886858 1.33344715761881
lowerneck -10.996804920714357 0.461723923043857 -2.4621424570314203
upperneck 36.377386139872655 0.9026789613826549 1.1304642225503523
head 14.274084725100451 0.19466973540464094 1.0332859830991348
lclavicle 1.0938629971815799e-15 -2.2156995557569114e-15
lhumerus -15.98550901755149 -1.7353108842762572 88.9715945923724
lradius 19.85630336224059
lwrist 0.9575839471537755
lhand -23.435402032422733 -3.4236466477136838
lfingers 7.12502
lthumb 3.0225979755685577 26.534693189161718
rclavicle 1.0938629971815799e-15 -2.2156995557569114e-15
rhumerus -19.184208974154156 -16.926394606227444 -83.33188948720736
rradius 26.301402322973257
rwrist 31.089909679069148
rhand -18.147094444114796 -26.737298635655712
rfingers 7.12502
rthumb 8.128355557748293 -56.56099835538501
12
root 0.36316248176455806 17.527300993221242 -14.320789940761657 6.6821353651754105 -0.1355382423481991 -1.5128244647506515
lfemur -13.705705058836001 8.104753941713247 -17.383305036738278
ltibia 18.845606137728613
lfoot -10.489699297247107 4.118153562620184
ltoes -12.79069665213388
rfemur -14.191705141485253 -2.298935474282388 19.056610941059354
rtibia 21.522705072596676
rfoot -13.316300133266413 -2.389431293863274
rtoes 5.416812889598003
lowerback -1.7753260837007168 -0.7309532013155563 0.543130243244264
upperback 5.064349793305476 -1.097450528407648 1.6715487289439521
thorax 6.274131064976373 -0.5636888600304073 1.3555368292088341
lowerneck -11.097504636481863 0.5241978371573934 -2.385574335195079
upperneck 36.290885695273225 0.991169040472146 1.0937645750027145
head 14.255184856342293 0.2393714024021566 1.0176165774223394
lclavicle 1.0938629922903754e-15 -2.2156995639157396e-15
lhumerus -15.738909244602029 -0.8943877185161115 88.70059514371397
lradius 19.305804299609786
lwrist 0.19828833145946767
lhand -23.43630202048091 -3.3276871524899665
lfingers 7.12502
lthumb 3.0217279822388496 26.630692802642322
rclavicle 1.0938629922903754e-15 -2.2156995639157396e-15
rhumerus -19.134308897061366 -16.82879492923473 -83.50028902038737
rradius 26.24230235972658
rwrist 31.140409525134473
rhand -18.080194850176994 -26.689699064774484
rfingers 7.12502
rthumb 8.192925131385355 -56.51089877585652
13
root 0.3861470006483896 17.52790098658341 -14.324790109133174 6.724145022794508 -0.2817659705548164 -1.5563837688669286
lfemur -13.788905811358493 8.20320342477211 -17.438104764342164
ltibia 18.937605766852144
lfoot -10.65389908454783 4.567752831620314
ltoes -14.352194743957227
rfemur -14.252005293084451 -2.3570551830924455 19.023211076513647
rtibia 21.470205339121502
rfoot -13.255100197712519 -2.217751653225167
rtoes 5.386192813227325
lowerback -1.772126072243323 -0.669954955622322 0.5866738027589715
upperback 5.082339807784981 -1.018871308656551 1.680938547413564
thorax 6.289130767041181 -0.5229965969106132 1.3466169612440937
lowerneck -11.136504475437027 0.5525143160985281 -2.3568650417498813
upperneck 36.34188615493643 1.0142698067631646 1.1294942275372182
head 14.286884718416486 0.2574898557355475 1.031556050711291
lclavicle 1.093862985628225e-15 -2.2156995235399957e-15
lhumerus -15.607909127642321 -0.10750742590245022 88.43789569963022
lradius 18.77450512085184
lwrist -0.4798389113002841
lhand -23.50100166358449 -3.3648269295816915
lfingers 7.12502
lthumb 2.959228337752526 26.594393023477267
rclavicle 1.093862985628225e-15 -2.2156995235399957e-15
rhumerus -19.109009191985294 -17.01229479046144 -83.51028886802835
rradius 26.00930280109506
rwrist 31.472308748646416
rhand -17.994995379160848 -26.75449848222673
rfingers 7.12502
rthumb 8.27519459129783 -56.572498258376385
14
root 0.4070806603303777 17.5278009965362 -14.321989112758828 6.736305040826615 -0.42406579915065173 -1.6004230718512227
lfemur -13.80150564762376 8.214123395182801 -17.471904525646057
ltibia 19.012505857292275
lfoot -10.716399037758645 4.950392069868997
ltoes -15.204393383291132
rfemur -14.245504805921158 -2.3803851580172077 18.995511362642926
rtibia 21.39900494270099
rfoot -13.198100239988735 -2.0826019207393616
rtoes 5.3133129134353645
lowerback -1.7732761626176021 -0.6042068288417239 0.6231804699043146
upperback 5.07251992313927 -0.9330711677132747 1.6896083823528711
thorax 6.277160893872766 -0.4789804095312473 1.3413670457254225
lowerneck -11.11640459293245 0.5492124112806068 -2.310416183991909
upperneck 36.47208587106898 1.0053299557059325 1.1070944621723329
head 14.343684600485448 0.2557859083872698 1.014376704727115
lclavicle 1.0938629965912595e-15 -2.2156995701917825e-15
lhumerus -15.587809084998028 0.5637937724296536 88.2346961324418
lradius 18.33680566741127
lwrist -1.1459131596576677
lhand -23.55060136497705 -3.374176856099491
lfingers 7.12502
lthumb 2.9113286357792703 26.58569298382329
rclavicle 1.0938629965912595e-15 -2.2156995701917825e-15
rhumerus -19.081709085072116 -17.392594225348383 -83.35758923528964
rradius 25.689803102639992
rwrist 31.930107751387233
rhand -17.901795965030555 -26.75909845355504
rfingers 7.12502
rthumb 8.365154018739672 -56.57339824479878
15
root 0.42539048417831 17.526901001185056 -14.317690249530873 6.7238950909358035 -0.48875723356506406 -1.6588721396307973
lfemur -13.81780570669444 8.232413266353484 -17.47420451357078
ltibia 19.12780528244251
lfoot -10.672299125444367 5.072621845312066
ltoes -15.011393515983634
rfemur -14.192705282813044 -2.3464852146828634 18.991911401139113
rtibia 21.33820491497735
rfoot -13.158600288306245 -2.0681019196656294
rtoes 5.295002977990853
lowerback -1.8076960673390228 -0.5923169929043149 0.6551211955468546
upperback 5.099939557685323 -0.9209782563469882 1.707528041332391
thorax 6.325760824670841 -0.4720095542828734 1.3427470468479985
lowerneck -11.053504790066118 0.5412925406611472 -2.3219159069007698
upperneck 36.49658548465399 0.9975509829233564 1.0978145165937807
head 14.341084491504446 0.24922310689777394 1.0112068263105594
lclavicle 1.0938629962539347e-15 -2.2156995413220632e-15
lhumerus -15.618009126074726 1.09870633984124 88.0653964364205
lradius 18.072206320617546
lwrist -1.474403042802975
lhand -23.531101475849578 -3.5877660158210474
lfingers 7.12502
lthumb 2.9301585258761325 26.371893844634194
rclavicle 1.0938629962539347e-15 -2.2156995413220632e-15
rhumerus -18.973509373816867 -17.669693949550634 -83.18438972446198
rradius 25.47720349721812
rwrist 32.26800680444341
rhand -17.87399616751205 -26.77579830507674
rfingers 7.12502
rthumb 8.391933850706748 -56.589098119727836
